# AST/ASF file generated using VICON BodyLanguage
# -----------------------------------------------
:version 1.10
:name VICON
:units
  mass 1.0
  length 0.45
  angle deg
:documentation
   .ast/.asf automatically generated from VICON data using
   VICON BodyBuilder and BodyLanguage model FoxedUp or BRILLIANT.MOD
:root
   order TX TY TZ RX RY RZ
   axis XYZ
   position 0 0 0  
   orientation 0 0 0 
:bonedata
  begin
     id 1 
     name lhipjoint
     direction 0.627412 -0.730575 0.26947 
     length 2.49821 
     axis 0 0 0  XYZ
  end
  begin
     id 2 
     name lfemur
     direction 0.34202 -0.939693 0  
     length 6.89165  
     axis 0 0 20  XYZ
    dof rx ry rz
    limits (-160.0 20.0)
           (-70.0 70.0)
           (-60.0 70.0)
  end
  begin
     id 3 
     name ltibia
     direction 0.34202 -0.939693 0   
     length 7.91287   
     axis 0 0 20   XYZ
    dof rx
    limits (-10.0 170.0)
  end
  begin
     id 4 
     name lfoot
     direction 0.0941675 -0.258723 0.96135   
     length 2.16919   
     axis -90 7.62852e-016 20   XYZ
    dof rx rz
    limits (-45.0 90.0)
           (-70.0 20.0)
  end
  begin
     id 5 
     name ltoes
     direction 1.5347e-011 -4.21941e-011 1   
     length 1.08535   
     axis -90 7.62852e-016 20   XYZ
    dof rx
    limits (-90.0 20.0)
  end
  begin
     id 6 
     name rhipjoint
     direction -0.614241 -0.740361 0.27308   
     length 2.46519  
     axis 0 0 0  XYZ 
  end
  begin
     id 7 
     name rfemur
     direction -0.34202 -0.939693 0   
     length 7.27512   
     axis 0 0 -20   XYZ
    dof rx ry rz
    limits (-160.0 20.0)
           (-70.0 70.0)
           (-70.0 60.0)
  end
  begin
     id 8 
     name rtibia
     direction -0.34202 -0.939693 0   
     length 7.89523   
     axis 0 0 -20   XYZ
    dof rx
    limits (-10.0 170.0)
 end
 begin
     id 9 
     name rfoot
     direction -0.0860444 -0.236405 0.967837   
     length 2.29534  
     axis -90 -7.62852e-016 -20   XYZ
    dof rx rz
    limits (-45.0 90.0)
           (-20.0 70.0)
  end
  begin
     id 10 
     name rtoes
     direction -1.53608e-011 -4.21861e-011 1   
     length 1.14915   
     axis -90 -7.62852e-016 -20   XYZ
    dof rx
    limits (-90.0 20.0)
  end
  begin
     id 11 
     name lowerback
     direction -0.00734074 0.997215 -0.0742143   
     length 2.13469   
     axis 0 0 0   XYZ
    dof rx ry rz
    limits (-20.0 45.0)
           (-30.0 30.0)
           (-30.0 30.0)
  end
  begin
     id 12 
     name upperback
     direction 0.0285728 0.99958 -0.00488656   
     length 2.13416   
     axis 0 0 0   XYZ
    dof rx ry rz
    limits (-20.0 45.0)
           (-30.0 30.0)
           (-30.0 30.0)
  end
  begin
     id 13 
     name thorax
     direction 0.0316844 0.999056 0.0297249   
     length 2.14463   
     axis 0 0 0   XYZ
    dof rx ry rz
    limits (-20.0 45.0)
           (-30.0 30.0)
           (-30.0 30.0)
  end
  begin
     id 14 
     name lowerneck
     direction -0.0281545 0.996802 0.0747864   
     length 1.79004   
     axis 0 0 0   XYZ
    dof rx ry rz
    limits (-20.0 45.0)
           (-30.0 30.0)
           (-30.0 30.0)
  end
  begin
     id 15 
     name upperneck
     direction -0.00100185 0.982732 -0.185031   
     length 1.79988   
     axis 0 0 0   XYZ
    dof rx ry rz
    limits (-20.0 45.0)
           (-30.0 30.0)
           (-30.0 30.0)
  end
  begin
     id 16
     name head
     direction 0.00403747 0.997539 -0.0700022  
     length 1.81696  
     axis 0 0 0   XYZ
    dof rx ry rz
    limits (-20.0 45.0)
           (-30.0 30.0)
           (-30.0 30.0)
  end
  begin
     id 17 
     name lclavicle
     direction 0.959882 0.242905 -0.140082  
     length 3.87755  
     axis 0 0 0   XYZ
    dof ry rz
    limits (-20.0 10.0)
           (0.0 20.0)
  end
  begin
     id 18 
     name lhumerus
     direction 1 -4.4895e-011 3.76166e-027   
     length 5.14601   
     axis 180 -30 -90   XYZ
    dof rx ry rz
    limits (-60.0 90.0)
           (-90.0 90.0)
           (-90.0 90.0)
  end
  begin
     id 19
     name lradius
     direction 1 -4.48966e-011 -3.24039e-027   
     length 3.64452   
     axis 180 -30 -90   XYZ
    dof rx
    limits (-10.0 170.0)
  end
  begin
     id 20
     name lwrist
     direction 1 -4.48999e-011 2.57119e-027   
     length 1.82226   
     axis -1.61769e-015 90 90   XYZ
    dof ry
    limits (-180.0 0.0)
 end
  begin
     id 21 
     name lhand
     direction 1 -4.48961e-011 5.13984e-027   
     length 0.56228   
     axis -3.27988e-015 90 90   XYZ
    dof rx rz
    limits (-90.0 90.0)
           (-45.0 45.0)
  end
  begin
     id 22 
     name lfingers
     direction 1 -4.48991e-011 1.02836e-026   
     length 0.453325   
     axis -6.5598e-015 90 90   XYZ
    dof rx
    limits (0.0 90.0)
  end
  begin
     id 23
     name lthumb
     direction 0.707107 -6.34956e-011 0.707107   
     length 0.650886   
     axis -90 45 2.19363e-014   XYZ
    dof rx rz
    limits (-45.0 45.0)
           (-45.0 45.0)
  end
  begin
     id 24 
     name rclavicle
     direction -0.929201 0.345171 -0.132073   
     length 3.55416  
     axis 0 0 0   XYZ 
    dof ry rz
    limits (-10.0 20.0)
           (-20.0 0.0)
  end
  begin
     id 25 
     name rhumerus
     direction -1 -4.48979e-011 4.53734e-027  
     length 5.33913   
     axis 180 30 90   XYZ
    dof rx ry rz
    limits (-90.0 60.0)
           (-90.0 90.0)
           (-90.0 90.0)
  end
  begin
     id 26 
     name rradius
     direction -1 -4.4896e-011 -2.24007e-027   
     length 3.56478   
     axis 180 30 90   XYZ
    dof rx
    limits (-10.0 170.0)
  end
  begin
     id 27 
     name rwrist
     direction -1 -4.48923e-011 2.56866e-027   
     length 1.78239   
     axis -1.61769e-015 -90 -90   XYZ
    dof ry
    limits (-180.0 0.0)
  end
  begin
     id 28
     name rhand
     direction -1 -4.48914e-011 5.13667e-027   
     length 0.857474   
     axis -3.27988e-015 -90 -90   XYZ
    dof rx rz
    limits (-90.0 90.0)
           (-45.0 45.0)
  end
  begin
     id 29
     name rfingers
     direction -1 -4.49112e-011 1.02998e-026   
     length 0.691318   
     axis -6.5598e-015 -90 -90   XYZ
    dof rx
    limits (0.0 90.0)
  end
  begin
     id 30
     name rthumb
     direction -0.707107 -6.34979e-011 0.707107   
     length 0.992598   
     axis -90 -45 -2.19363e-014   XYZ
    dof rx rz
    limits (-45.0 45.0)
           (-45.0 45.0)
  end
:hierarchy
  begin
    root lhipjoint rhipjoint lowerback
    lhipjoint lfemur
    lfemur ltibia
    ltibia lfoot
    lfoot ltoes
    rhipjoint rfemur
    rfemur rtibia
    rtibia rfoot
    rfoot rtoes
    lowerback upperback
    upperback thorax
    thorax lowerneck lclavicle rclavicle
    lowerneck upperneck
    upperneck head
    lclavicle lhumerus
    lhumerus lradius
    lradius lwrist
    lwrist lhand lthumb
    lhand lfingers
    rclavicle rhumerus
    rhumerus rradius
    rradius rwrist
    rwrist rhand rthumb
    rhand rfingers
  end

#!OML:ASF F:\VICON\USERDATA\INSTALL\Justin4\Justin4.ASF
:FULLY-SPECIFIED
:DEGREES
1653
root -11.201 16.6853 24.0677 -12.5809 13.834 -1.03543
lowerback 18.4037 2.41828 -3.32924
upperback 4.13837 2.51753 -0.973926
thorax -5.93383 1.28589 0.264734
lowerneck -10.9865 -2.01534 -5.45587
upperneck 17.3858 -3.26464 8.21626
head 7.35837 -1.17773 3.28662
rclavicle 2.55438e-014 -1.82882e-014
rhumerus 49.3413 1.36651 -62.3867
rradius 48.4467
rwrist 63.8014
rhand 15.8071 10.3246
rfingers 7.12502
rthumb 40.6108 -374.714
lclavicle 2.55438e-014 -1.82882e-014
lhumerus -6.11342 -40.5928 96.2569
lradius 126.676
lwrist 5.18567
lhand -6.40167 10.477
lfingers 7.12502
lthumb 19.4462 39.5246
rfemur -17.0353 -6.66357 6.31096
rtibia 70.85
rfoot -1.65562 -10.6485
rtoes 12.1024
lfemur -29.5663 0.304177 -15.5539
ltibia 69.237
lfoot 0.317469 -10.9917
ltoes -29.4698
1654
root -11.3285 16.5887 24.1197 -12.0588 14.3211 -6.97862
lowerback 18.0721 2.27485 1.18887
upperback 3.47609 3.25868 0.140885
thorax -6.31122 1.58002 -1.27571
lowerneck -11.9779 -2.68611 -5.03997
upperneck 17.3958 -4.45547 9.34951
head 7.64921 -1.59155 3.46909
rclavicle 3.55825e-014 -5.56597e-015
rhumerus 48.5833 0.454972 -59.1093
rradius 46.3823
rwrist 60.7914
rhand 19.2276 10.4732
rfingers 7.12502
rthumb 43.8148 -373.478
lclavicle 3.55825e-014 -5.56597e-015
lhumerus -4.89548 -42.3172 95.9035
lradius 126.427
lwrist 4.63589
lhand -7.03567 12.4154
lfingers 7.12502
lthumb 18.8365 41.5234
rfemur -20.5599 -4.0274 14.4213
rtibia 68.1605
rfoot -2.578 -11.0497
rtoes 7.40118
lfemur -32.5305 2.69123 -9.20153
ltibia 70.7773
lfoot 0.16345 -12.2814
ltoes -31.2849
1655
root -11.4115 16.5315 24.2775 -11.8593 17.2388 -7.90825
lowerback 17.8974 2.29642 0.77784
upperback 3.53493 3.19968 -0.0467774
thorax -6.16712 1.56194 -1.2203
lowerneck -12.8566 -3.44149 -4.57949
upperneck 17.0461 -5.75367 10.4202
head 7.82185 -2.0621 3.59765
rclavicle 2.0276e-014 1.59028e-014
rhumerus 46.5751 0.59252 -54.3203
rradius 46.8061
rwrist 48.7189
rhand 17.3238 6.17674
rfingers 7.12502
rthumb 42.0343 -378.402
lclavicle 2.0276e-014 1.59028e-014
lhumerus -3.93478 -44.3238 95.5928
lradius 126.173
lwrist 4.01954
lhand -7.29118 13.1763
lfingers 7.12502
lthumb 18.5908 42.308
rfemur -21.0739 -3.21648 15.1554
rtibia 64.829
rfoot -4.5496 -9.34042
rtoes 2.85057
lfemur -32.4263 2.90571 -9.31263
ltibia 71.0059
lfoot -0.343853 -11.2546
ltoes -32.263
1656
root -11.5003 16.4678 24.4569 -11.7789 20.2373 -8.87822
lowerback 17.8418 2.35976 0.128905
upperback 3.52778 3.16249 -0.113133
thorax -6.17695 1.55658 -0.914194
lowerneck -13.5682 -4.21724 -4.33765
upperneck 16.6174 -7.0451 11.5293
head 7.95838 -2.54387 3.76808
rclavicle 4.8901e-014 -2.38542e-014
rhumerus 43.6308 1.2221 -49.7584
rradius 49.1197
rwrist 34.6926
rhand 14.4189 0.451902
rfingers 7.12502
rthumb 39.3044 -384.98
lclavicle 4.8901e-014 -2.38542e-014
lhumerus -3.58987 -46.3094 95.4883
lradius 126.141
lwrist 3.33098
lhand -7.20026 13.3012
lfingers 7.12502
lthumb 18.6782 42.4245
rfemur -21.3567 -2.03298 15.6992
rtibia 61.1296
rfoot -6.22556 -7.50487
rtoes -1.26924
lfemur -32.0444 3.26268 -9.30052
ltibia 71.0864
lfoot -2.24938 -9.46642
ltoes -32.9149
1657
root -11.5945 16.3975 24.6597 -12.0546 23.1689 -10.3017
lowerback 17.7103 2.35471 -0.410152
upperback 3.59367 3.07602 0.0793237
thorax -6.07587 1.52811 -0.378472
lowerneck -14.0078 -4.90571 -4.3981
upperneck 15.9484 -8.12957 12.6536
head 7.9736 -2.96277 4.01186
rclavicle -6.67916e-014 -9.54166e-015
rhumerus 40.519 1.75576 -46.6451
rradius 52.1402
rwrist 24.9048
rhand 9.55201 -3.37011
rfingers 7.12502
rthumb 34.7013 -389.995
lclavicle -6.67916e-014 -9.54166e-015
lhumerus -3.53453 -47.8796 95.371
lradius 126.356
lwrist 2.75509
lhand -6.79451 13.4641
lfingers 7.12502
lthumb 19.0684 42.5494
rfemur -21.3987 -0.421339 16.5132
rtibia 57.1926
rfoot -8.0373 -5.62119
rtoes -6.42738
lfemur -31.2584 3.79238 -8.67438
ltibia 70.5122
lfoot -6.02009 -7.27934
ltoes -31.2272
1658
root -11.6783 16.3313 24.8723 -12.4656 26.4306 -11.8565
lowerback 17.4479 2.14637 -0.746791
upperback 3.71035 2.76277 0.265941
thorax -5.83478 1.38567 0.0932301
lowerneck -14.2034 -5.5794 -4.64794
upperneck 15.1027 -9.11291 13.7193
head 7.89688 -3.37027 4.2764
rclavicle -5.22804e-014 9.54166e-015
rhumerus 37.4868 0.298924 -46.3642
rradius 55.6398
rwrist 29.5824
rhand 11.234 -1.83454
rfingers 7.12502
rthumb 36.2958 -388.078
lclavicle -5.22804e-014 9.54166e-015
lhumerus -3.53563 -49.1057 95.1239
lradius 126.725
lwrist 2.82174
lhand -6.31886 13.9396
lfingers 7.12502
lthumb 19.5258 42.9792
rfemur -21.2496 1.06137 17.0521
rtibia 53.3407
rfoot -10.1687 -4.43463
rtoes -10.566
lfemur -30.5442 3.98046 -7.95295
ltibia 69.6176
lfoot -10.3981 -5.42585
ltoes -28.4871
1659
root -11.7433 16.2792 25.0825 -12.5707 30.3078 -12.8663
lowerback 17.1529 1.69052 -1.27098
upperback 3.77969 2.07401 0.163117
thorax -5.60819 1.05909 0.442798
lowerneck -14.7103 -6.29359 -5.09819
upperneck 14.6605 -10.1359 14.7097
head 8.03446 -3.78691 4.53878
rclavicle -7.59357e-014 -6.36111e-015
rhumerus 34.3919 -1.08061 -46.7662
rradius 58.6679
rwrist 35.4642
rhand 9.98277 -0.0123786
rfingers 7.12502
rthumb 35.11 -386.543
lclavicle -7.59357e-014 -6.36111e-015
lhumerus -3.6219 -49.9519 94.6704
lradius 127.143
lwrist 3.3981
lhand -6.00353 14.3635
lfingers 7.12502
lthumb 19.829 43.372
rfemur -21.0582 1.89147 16.5523
rtibia 49.9034
rfoot -10.7023 -5.34816
rtoes -10.6485
lfemur -30.1928 3.48818 -7.95487
ltibia 68.5241
lfoot -13.3881 -3.25485
ltoes -26.6616
1660
root -11.8082 16.241 25.2931 -12.8995 34.3438 -14.2737
lowerback 16.9082 1.01462 -1.57518
upperback 3.83014 1.14585 0.197701
thorax -5.40966 0.61117 0.857236
lowerneck -15.4919 -6.90827 -5.62567
upperneck 14.5516 -10.9818 15.3839
head 8.31037 -4.12348 4.72257
rclavicle 1.15295e-014 0
rhumerus 31.5996 -2.52454 -47.6865
rradius 61.8646
rwrist 41.2973
rhand 9.27649 1.63133
rfingers 7.12502
rthumb 34.4398 -385.054
lclavicle 1.15295e-014 0
lhumerus -3.72497 -50.1738 94.0401
lradius 127.438
lwrist 4.16852
lhand -6.09226 14.2129
lfingers 7.12502
lthumb 19.7437 43.2302
rfemur -21.0447 2.63451 16.1812
rtibia 47.0835
rfoot -10.3697 -7.14322
rtoes -10.0876
lfemur -30.2349 2.43235 -7.51221
ltibia 67.6361
lfoot -15.6408 -2.72184
ltoes -20.4912
1661
root -11.8774 16.2102 25.4993 -13.7594 38.4633 -16.1868
lowerback 16.7668 0.155224 -2.00212
upperback 4.04481 -0.0147312 0.646691
thorax -5.06963 0.048483 1.82073
lowerneck -15.9505 -6.99471 -6.19144
upperneck 13.996 -10.9394 15.6799
head 8.25602 -4.11285 4.90626
rclavicle -2.38542e-014 2.06736e-014
rhumerus 29.5737 -3.56199 -48.4533
rradius 65.3586
rwrist 44.0892
rhand 9.44613 1.99833
rfingers 7.12502
rthumb 34.6008 -384.65
lclavicle -2.38542e-014 2.06736e-014
lhumerus -3.5346 -49.4521 93.3851
lradius 127.733
lwrist 5.29792
lhand -7.25918 13.6398
lfingers 7.12502
lthumb 18.6215 42.7685
rfemur -21.2209 3.32583 16.03
rtibia 45.0336
rfoot -9.61865 -7.42978
rtoes -10.4434
lfemur -30.9048 0.714346 -6.62916
ltibia 67.2773
lfoot -17.1316 -3.80265
ltoes -8.88787
1662
root -11.9363 16.1826 25.6894 -14.7004 42.7201 -18.1045
lowerback 16.7086 -0.75291 -2.45758
upperback 4.26357 -1.24115 1.14161
thorax -4.72393 -0.551656 2.8521
lowerneck -15.2227 -6.54595 -6.5502
upperneck 12.246 -10.018 15.7824
head 7.46673 -3.79758 5.11759
rclavicle -4.33351e-014 3.81667e-014
rhumerus 27.6406 -4.26111 -48.9221
rradius 68.8864
rwrist 42.6799
rhand 9.0669 0.906969
rfingers 7.12502
rthumb 34.2408 -385.823
lclavicle -4.33351e-014 3.81667e-014
lhumerus -2.87477 -48.2439 92.6942
lradius 127.964
lwrist 6.67125
lhand -8.45053 13.4947
lfingers 7.12502
lthumb 17.4753 42.7293
rfemur -21.5272 3.53828 15.508
rtibia 43.8094
rfoot -9.24051 -7.29919
rtoes -14.4076
lfemur -32.6607 -0.576593 -6.02792
ltibia 67.578
lfoot -17.7957 -4.40036
ltoes -5.44536
